<?xml version="1.0" encoding="UTF-8"?><svg xmlns="http://www.w3.org/2000/svg" viewBox="0 0 1186.86 1321.28"><defs><style>.d{fill:#6177ef;}</style></defs><g id="a"/><g id="b"><g><path class="d" d="M593.15,263.96h0c-69.66,0-135.14,27.13-184.4,76.38s-76.38,114.74-76.38,184.4,27.13,135.14,76.38,184.4,114.74,76.38,184.4,76.38,135.14-27.13,184.4-76.38c49.25-49.25,76.38-114.74,76.38-184.4,0-47.95-12.85-93.92-36.93-133.98,57.95-13.09,101.23-64.89,101.23-126.8h-325.08Zm0,391.55c-72.11,0-130.78-58.67-130.78-130.78s58.67-130.78,130.78-130.78,130.78,58.67,130.78,130.78-58.67,130.78-130.78,130.78Z"/><path class="d" d="M771.39,805.02c-3.77-3.77-9.96-3.45-13.33,.68-38.61,47.34-97.37,77.61-163.07,77.61s-124.44-30.26-163.04-77.58c-3.37-4.13-9.56-4.45-13.33-.68l-79.55,79.55c-3.34,3.34-3.55,8.7-.44,12.26,5.02,5.74,10.24,11.33,15.68,16.75,31.23,31.24,67.63,55.78,108.17,72.92,42,17.77,86.59,26.78,132.51,26.78s90.51-9.01,132.51-26.78c40.54-17.14,76.94-41.68,108.18-72.92,5.43-5.43,10.66-11.02,15.68-16.75,3.12-3.56,2.92-8.94-.42-12.29l-79.55-79.55Z"/></g></g><g id="c"/></svg>