<?xml version="1.0" encoding="UTF-8"?><svg xmlns="http://www.w3.org/2000/svg" viewBox="0 0 2643.37 1321.28"><defs><style>.d{fill:#6177ef;}</style></defs><g id="a"/><g id="b"/><g id="c"><g><g><path class="d" d="M359.57,382.78h0c-69.66,0-135.14,27.13-184.4,76.38-49.25,49.25-76.38,114.74-76.38,184.4s27.13,135.14,76.38,184.4,114.74,76.38,184.4,76.38,135.14-27.13,184.4-76.38c49.25-49.25,76.38-114.74,76.38-184.4,0-47.95-12.85-93.92-36.93-133.98,57.95-13.09,101.23-64.89,101.23-126.8H359.57Zm0,391.55c-72.11,0-130.78-58.67-130.78-130.78s58.67-130.78,130.78-130.78,130.78,58.67,130.78,130.78-58.67,130.78-130.78,130.78Z"/><path class="d" d="M537.8,923.85c-3.77-3.77-9.96-3.45-13.33,.68-38.61,47.34-97.37,77.61-163.07,77.61s-124.44-30.26-163.04-77.58c-3.37-4.13-9.56-4.45-13.33-.68l-79.55,79.55c-3.34,3.34-3.55,8.7-.44,12.26,5.02,5.74,10.24,11.33,15.68,16.75,31.23,31.24,67.63,55.78,108.17,72.92,42,17.77,86.59,26.78,132.51,26.78s90.51-9.01,132.51-26.78c40.54-17.14,76.94-41.68,108.18-72.92,5.43-5.43,10.66-11.02,15.68-16.75,3.12-3.56,2.92-8.94-.42-12.29l-79.55-79.55Z"/></g><path class="d" d="M1460.85,903.79h-63.31c-31.86,0-57.69-25.83-57.69-57.69V391.24c0-4.97,4.03-9,9-9h63.31c31.86,0,57.69,25.83,57.69,57.69v454.86c0,4.97-4.03,9-9,9Z"/><path class="d" d="M1114.82,385.64c-11.33,0-20.52,9.08-20.52,20.28h0v270.37c0,54.15-43.39,99.2-98.18,100.45-1.01,.02-2.03,.03-3.05,.03-8.39,0-16.6-.79-24.55-2.31-47.64-9.07-81.84-50.64-81.84-98.58V405.92c0-11.2-9.19-20.28-20.52-20.28h-81.36c-15.53,0-28.12,12.44-28.12,27.79v298.29c0,38.1,13.5,75.09,38.5,104.1,4.3,4.98,8.8,9.83,13.5,14.53,22.9,22.88,49.3,40.97,78,53.77,33.04,14.77,69.12,22.53,106.39,22.53,35.34,0,69.62-6.98,101.23-20.29,30.71-12.9,58.91-31.78,83.17-56.02,.19-.19,.38-.38,.57-.57,29.83-29.98,46.26-70.52,46.26-112.57V413.43c0-15.35-12.59-27.79-28.12-27.79h-81.36Z"/><path class="d" d="M2080.13,643.01c0-7.06-.29-14.07-.84-21.03V117.7h-55c-41.42,0-75,33.58-75,75v224.1c-39.15-22.57-83.69-34.59-130.1-34.56-69.16,.04-135.33,27.48-184.24,76.38-49.49,49.49-76.64,115.36-76.38,185.39,.25,68.9,27.66,134.68,76.38,183.41,49.25,49.25,114.74,76.38,184.4,76.38,46.34,0,90.83-12.02,129.93-34.56v25.1c0,5.23,4.24,9.47,9.47,9.47h45.53c41.42,0,75-33.58,75-75v-164.74c.55-6.96,.84-13.97,.84-21.03Zm-260.78,130.78c-72.11,0-130.78-58.67-130.78-130.78s58.67-130.78,130.78-130.78c67.1,0,122.55,50.8,129.93,115.96v29.64c-7.38,65.16-62.83,115.96-129.93,115.96Z"/><path class="d" d="M2455.51,383.85c-.17,0-.34,0-.5,0-47.03,0-92.16,12.34-131.68,35.45v-27.55c0-4.95-4.03-8.96-9-8.96h-46c-41.42,0-75,33.45-75,74.71v435.84c0,4.95,4.03,8.96,9,8.96h46c41.42,0,75-33.45,75-74.71v-183.98h.32c0-71.83,59.25-130.27,131.36-130.27,13.14,0,25.84,1.94,37.81,5.55,5.78,1.74,11.6-2.56,11.6-8.58v-77.36c0-26.97-21.83-49.05-48.91-49.1Z"/></g></g></svg>