<?xml version="1.0" encoding="utf-8"?>
<!-- Generator: Adobe Illustrator 26.3.0, SVG Export Plug-In . SVG Version: 6.00 Build 0)  -->
<svg version="1.1" id="Icons" xmlns="http://www.w3.org/2000/svg" xmlns:xlink="http://www.w3.org/1999/xlink" x="0px" y="0px"
	 viewBox="0 0 800 800" style="enable-background:new 0 0 800 800;" xml:space="preserve">
<style type="text/css">
	.st0{fill:#FFFFFF;}
</style>
<path class="st0" d="M100,350c15,0,25-10,25-25V175l110,202.5c-62.5,7.5-110,60-110,122.5c0,15,10,25,25,25h500c15,0,25-10,25-25
	V350c0-5-2.5-10-5-15L570,210c-5-7.5-12.5-10-20-10H450c-15,0-25,10-25,25v117.5l-307.5-285c-2.5-2.5-5-2.5-5-5c0,0,0,0-2.5,0
	c-2.5-2.5-7.5-2.5-10-2.5l0,0h-2.5c-2.5,0-5,0-5,0C90,50,90,50,90,52.5c0,0-2.5,0-2.5,2.5l0,0L85,57.5c0,2.5-2.5,2.5-2.5,5
	c0,0,0,2.5-2.5,2.5c0,2.5,0,2.5,0,5c-5,2.5-5,5-5,5v250C75,340,85,350,100,350z M537.5,250l80,100h-30c-20,0-40-12.5-50-35
	c-5-10-12.5-15-22.5-15h-40v-50H537.5z M387.5,375h-80l12.5-62.5L387.5,375z M275,272.5l-10,55L192.5,195L275,272.5z"/>
<path class="st0" d="M650,550H150c-55,0-100,45-100,100s45,100,100,100h500c55,0,100-45,100-100S705,550,650,550z M192.5,667.5
	c-2.5,2.5-5,5-7.5,5c-2.5,2.5-7.5,2.5-10,2.5s-2.5,0-5,0s-2.5,0-5-2.5c-2.5,0-2.5-2.5-5-2.5l-2.5-2.5c0-2.5-2.5-2.5-2.5-5
	c0,0-2.5-2.5-2.5-5s0-2.5-2.5-5c0-2.5,0-2.5,0-5s0-7.5,2.5-10c0-2.5,2.5-5,5-7.5l2.5-2.5c2.5,0,2.5-2.5,5-2.5c2.5,0,2.5,0,5-2.5
	c5,0,10,0,15,2.5c2.5,2.5,5,2.5,7.5,5s5,5,5,7.5c2.5,5,2.5,10,2.5,12.5C200,657.5,197.5,662.5,192.5,667.5z M422.5,660
	c0,2.5-2.5,5-5,7.5c0,0-2.5,2.5-5,2.5c0,0-2.5,2.5-5,2.5s-2.5,0-5,2.5c-2.5,0-2.5,0-5,0c-7.5,0-12.5-2.5-17.5-7.5
	c-2.5-2.5-5-5-5-7.5c0-2.5,0-7.5,0-10s0-7.5,2.5-10c0-2.5,2.5-5,5-7.5c10-10,25-10,35,0c2.5,2.5,5,5,5,7.5c0,2.5,2.5,7.5,2.5,10
	C425,652.5,425,657.5,422.5,660z M642.5,667.5c0,0-2.5,2.5-5,2.5c0,0-2.5,2.5-5,2.5s-2.5,0-5,2.5c-2.5,0-2.5,0-5,0s-7.5,0-10-2.5
	c-2.5-2.5-5-2.5-7.5-5c-2.5-5-5-10-5-17.5s2.5-12.5,7.5-17.5c2.5-2.5,5-5,7.5-5c10-5,20-2.5,27.5,5c2.5,2.5,5,5,5,7.5
	c2.5,2.5,2.5,7.5,2.5,10C650,657.5,647.5,662.5,642.5,667.5z"/>
</svg>
