<?xml version="1.0" encoding="utf-8"?>
<!-- Generator: Adobe Illustrator 26.3.0, SVG Export Plug-In . SVG Version: 6.00 Build 0)  -->
<svg version="1.1" id="Layer_1" xmlns="http://www.w3.org/2000/svg" xmlns:xlink="http://www.w3.org/1999/xlink" x="0px" y="0px"
	 viewBox="0 0 800 800" style="enable-background:new 0 0 800 800;" xml:space="preserve">
<style type="text/css">
	.st0{fill:#FFFFFF;}
</style>
<path class="st0" d="M379.5,40.4c12-9.4,28.9-9.4,40.9,0l300,233.3c8.1,6.3,12.9,16,12.9,26.3v383.3c0,27.6-22.4,50-50,50H541.6
	c-23,0-41.6-18.6-41.6-41.6v-225c0-18.4-14.9-33.3-33.3-33.3H333.3c-18.4,0-33.3,14.9-33.3,33.3v225c0,23-18.6,41.6-41.6,41.6H116.7
	c-27.6,0-50-22.4-50-50V300c0-10.3,4.7-20,12.9-26.3L379.5,40.4z"/>
</svg>
