<?xml version="1.0" encoding="utf-8"?>
<!-- Generator: Adobe Illustrator 26.3.0, SVG Export Plug-In . SVG Version: 6.00 Build 0)  -->
<svg version="1.1" id="meteor-icon-kit__solid-party-horn"
	 xmlns="http://www.w3.org/2000/svg" xmlns:xlink="http://www.w3.org/1999/xlink" x="0px" y="0px" viewBox="0 0 800 800"
	 style="enable-background:new 0 0 800 800;" xml:space="preserve">
<style type="text/css">
	.st0{clip-path:url(#SVGID_00000111190332144996970180000006821352361327404929_);}
	.st1{fill-rule:evenodd;clip-rule:evenodd;fill:#FFFFFF;}
</style>
<g>
	<defs>
		<rect id="SVGID_1_" width="800" height="800"/>
	</defs>
	<clipPath id="SVGID_00000039828708409480572190000011265858569615085194_">
		<use xlink:href="#SVGID_1_"  style="overflow:visible;"/>
	</clipPath>
	<g style="clip-path:url(#SVGID_00000039828708409480572190000011265858569615085194_);">
		<path class="st1" d="M433.3,366.7c65,0,108.5-22.4,136.8-60.2c25.2-33.6,36-76.7,44.8-112l0.8-3c9.8-39.2,17.9-69.5,34.2-91.2
			c13.8-18.5,36-33.5,83.5-33.5c18.4,0,33.3-14.9,33.3-33.3c0-18.4-14.9-33.3-33.3-33.3c-65,0-108.5,22.4-136.8,60.2
			c-25.2,33.6-36,76.7-44.8,112l-0.8,3c-9.8,39.2-17.9,69.5-34.2,91.2c-13.8,18.5-36,33.5-83.5,33.5c-18.4,0-33.3,14.9-33.3,33.3
			C400,351.7,414.9,366.7,433.3,366.7z M320.1,6.7c-14.7-11.1-35.6-8.1-46.7,6.7C262.3,28.1,265.3,49,280,60
			c14,10.5,25.8,23.7,34.7,38.7c8.9,15.1,14.8,31.7,17.2,49.1c2.5,17.3,1.5,35-2.8,51.9c-4.4,17-12,32.9-22.5,46.9
			c-11.1,14.7-8.1,35.6,6.7,46.7c14.7,11.1,35.6,8.1,46.7-6.7c15.8-21,27.2-44.9,33.8-70.4c6.5-25.4,8-51.9,4.3-77.9
			c-3.7-26-12.5-51-25.9-73.6C358.8,42.2,341.1,22.5,320.1,6.7z M233.3,166.7c0,18.4-14.9,33.3-33.3,33.3s-33.3-14.9-33.3-33.3
			s14.9-33.3,33.3-33.3S233.3,148.3,233.3,166.7z M733.3,300c18.4,0,33.3-14.9,33.3-33.3s-14.9-33.3-33.3-33.3S700,248.3,700,266.7
			S714.9,300,733.3,300z M666.7,600c0,18.4-14.9,33.3-33.3,33.3S600,618.4,600,600c0-18.4,14.9-33.3,33.3-33.3
			S666.7,581.6,666.7,600z M652.2,468c-17.3-2.5-35-1.5-51.9,2.8c-17,4.3-32.9,12-46.9,22.5c-14.7,11-35.6,8.1-46.7-6.7
			c-11-14.7-8.1-35.6,6.7-46.7c21-15.8,44.9-27.2,70.4-33.7c25.4-6.5,51.9-8,77.9-4.2c26,3.7,51,12.5,73.6,25.9
			c22.6,13.4,42.3,31.1,58.1,52.1c11,14.7,8.1,35.6-6.7,46.7s-35.6,8.1-46.7-6.7c-10.5-14-23.7-25.8-38.7-34.7
			C686.2,476.4,669.5,470.5,652.2,468z M223.6,309.8c-8-8-19.5-11.4-30.5-9c-11,2.3-20.1,10.1-24.2,20.6L122.5,442L358,677.5
			l120.6-46.4c10.5-4.1,18.3-13.2,20.6-24.2c2.3-11-1.1-22.5-9-30.5L223.6,309.8z M289.9,703.7L96.3,510.1L2.2,754.7
			c-4.7,12.3-1.8,26.2,7.5,35.5c9.3,9.3,23.2,12.3,35.5,7.5L289.9,703.7z"/>
	</g>
</g>
</svg>
