<?xml version="1.0" encoding="utf-8"?>
<!-- Generator: Adobe Illustrator 26.3.0, SVG Export Plug-In . SVG Version: 6.00 Build 0)  -->
<svg version="1.1" id="Layer_1" xmlns="http://www.w3.org/2000/svg" xmlns:xlink="http://www.w3.org/1999/xlink" x="0px" y="0px"
	 viewBox="0 0 800 800" style="enable-background:new 0 0 800 800;" xml:space="preserve">
<style type="text/css">
	.st0{fill:#FFFFFF;}
</style>
<path class="st0" d="M655.9,308.8c-6.1-5.6-14.2-8.8-22.5-8.8H453c-8.1,0-14.4-7.1-13.4-15.1l26.7-214.1c2.2-18.3-10.7-34.9-29-37.2
	c-12-1.5-23.9,3.7-31,13.4L139.7,413.7c-10.8,14.9-7.5,35.7,7.4,46.6c5.7,4.1,12.5,6.4,19.6,6.4h135c9.2,0,15.7,9,12.8,17.7
	l-79.4,238.4c-5,14.9,1.2,31.3,14.7,39.3c13.6,8,30.8,5.4,41.5-6.2l366.7-400C670.3,342.3,669.4,321.2,655.9,308.8z"/>
</svg>
